<svg xmlns="http://www.w3.org/2000/svg" version="1.1">
  <circle cx="320" cy="260" r="200" style="fill:rgb(0,0,0)" />
  <circle cx="320" cy="260" r="160" style="fill:rgb(210,210,210)" />
  <rect x="190" y="230" width="70" height="14" style="fill:rgb(0,0,0)" />
  <rect x="190" y="230" width="14" height="70" style="fill:rgb(0,0,0)" />
  <rect x="190" y="286" width="70" height="14" style="fill:rgb(0,0,0)" />
  <rect x="270" y="230" width="70" height="14" style="fill:rgb(0,0,0)" />
  <rect x="270" y="230" width="14" height="35" style="fill:rgb(0,0,0)" />
  <rect x="270" y="260" width="70" height="14" style="fill:rgb(0,0,0)" />
  <rect x="326" y="260" width="14" height="35" style="fill:rgb(0,0,0)" />
  <rect x="270" y="286" width="70" height="14" style="fill:rgb(0,0,0)" />
  <rect x="350" y="230" width="70" height="14" style="fill:rgb(0,0,0)" />
  <rect x="350" y="230" width="14" height="70" style="fill:rgb(0,0,0)" />
  <rect x="350" y="286" width="70" height="14" style="fill:rgb(0,0,0)" />
  <rect x="392" y="260" width="28" height="14" style="fill:rgb(0,0,0)" />
  <rect x="406" y="260" width="14" height="40" style="fill:rgb(0,0,0)" />
  <circle cx="440" cy="260" r="28" style="fill:rgb(0,0,0)" />
  <circle cx="440" cy="260" r="14" style="fill:rgb(210,210,210)" />
</svg>
