<svg xmlns="http://www.w3.org/2000/svg" version="1.1">
  <rect x="50" y="50" width="12" height="100" style="fill:rgb(0,0,0)" />
  <rect x="50" y="50" width="60" height="12" style="fill:rgb(0,0,0)" />
  <rect x="50" y="94" width="48" height="12" style="fill:rgb(0,0,0)" />
  <rect x="50" y="138" width="60" height="12" style="fill:rgb(0,0,0)" />
  <rect x="130" y="50" width="60" height="12" style="fill:rgb(0,0,0)" />
  <rect x="130" y="94" width="60" height="12" style="fill:rgb(0,0,0)" />
  <rect x="130" y="138" width="60" height="12" style="fill:rgb(0,0,0)" />
  <rect x="130" y="50" width="12" height="44" style="fill:rgb(0,0,0)" />
  <rect x="178" y="94" width="12" height="56" style="fill:rgb(0,0,0)" />
  <rect x="210" y="50" width="60" height="12" style="fill:rgb(0,0,0)" />
  <rect x="234" y="50" width="12" height="100" style="fill:rgb(0,0,0)" />
  <rect x="210" y="138" width="60" height="12" style="fill:rgb(0,0,0)" />
  <rect x="290" y="50" width="12" height="100" style="fill:rgb(0,0,0)" />
  <rect x="290" y="138" width="60" height="12" style="fill:rgb(0,0,0)" />
  <polygon points="370,50 382,50 410,138 438,50 450,50 416,150 404,150" style="fill:rgb(0,0,0)" />
</svg>
